<?xml version="1.0" encoding="utf-8"?>
<!-- Generator: Adobe Illustrator 18.1.1, SVG Export Plug-In . SVG Version: 6.00 Build 0)  -->
<svg version="1.1" id="Layer_1" xmlns="http://www.w3.org/2000/svg" xmlns:xlink="http://www.w3.org/1999/xlink" x="0px" y="0px"
	 viewBox="-847 1281 32 32" enable-background="new -847 1281 32 32" xml:space="preserve">
<path d="M-843,1286h24c1.1,0,2-0.9,2-2s-0.9-2-2-2h-24c-1.1,0-2,0.9-2,2S-844.1,1286-843,1286z M-819,1290h-24c-1.1,0-2,0.9-2,2
	s0.9,2,2,2h24c1.1,0,2-0.9,2-2S-817.9,1290-819,1290z M-819,1298h-24c-1.1,0-2,0.9-2,2s0.9,2,2,2h24c1.1,0,2-0.9,2-2
	S-817.9,1298-819,1298z"/>
<text transform="matrix(1 0 0 1 -847.4417 1311.9987)" font-family="'MyriadPro-Bold'" font-size="12">MENU</text>
</svg>
